<svg xmlns:xlink="http://www.w3.org/1999/xlink" id="logo" version="1.1" viewBox="0 0 247.5 45" xmlns="http://www.w3.org/2000/svg" width="270"  height="49" >
                                            <g transform="translate(0,-1007.4)">
                                                <path class="fill-me-main" d="m7 1024.4s2 0.469 2-1c0-1.531-2-1-2-1h-3v2zm3-3.5s3 0.562 3 2.5c0 3.531-3 3-3 3h-10v-10h10s2 0.042 2 3c0 1.5-2 1.5-2 1.5m-3.5-0.5s1.5 0.406 1.5-1-1.5-1-1.5-1h-2.5v2z" fill="#231F20"></path>
                                                <path class="fill-me-main" d="m16 1016.4v9.939h5v-4l-2-2v-3.939z" fill="#231F20"></path>
                                                <path class="fill-me-main" d="m32 1023.4c0.87 0 1.561 0.05 2.067-0.375 0.506-0.429 0.933-0.648 0.933-1.625 0-0.984-0.432-1.172-0.941-1.598-0.51-0.427-1.219-0.402-2.059-0.402h-1e-3c-0.841 0-1.55-0.025-2.059 0.402-0.51 0.426-0.94 0.614-0.94 1.598 0 0.977 0.428 1.196 0.935 1.625 0.506 0.425 1.197 0.375 2.066 0.375zm1e-3 2.999c-1.458-0.01-2.673-0.183-3.642-0.519-0.997-0.35-1.805-0.899-2.428-1.651-0.62-0.752-0.931-1.693-0.931-2.824 0-1.578 0.617-2.808 1.843-3.686 1.23-0.88 2.964-1.319 5.157-1.319h1e-3c2.193 0 3.928 0.439 5.157 1.319 1.227 0.878 1.843 2.108 1.843 3.686 0 1.131-0.311 2.072-0.93 2.824-0.623 0.752-1.431 1.301-2.428 1.651-0.97 0.336-2.184 0.509-3.643 0.519z" fill="#231F20"></path>
                                                <path class="fill-me-main" d="m52 1033.4c7.219 0 13.051-5.667 13.051-12.886s-5.832-12.106-13.051-12.106v-1.001c5.723 0 13.446-0.01 19.168-0.01 7.219 0 12.832 5.779 12.832 13s-5.613 13.221-12.832 13.221c-0.111 0 2.859 0.098 2.859 0.098 12.55 1.026 11.701 16.729 22.973 17.681v1h-22c-14.17-0.254-8.577-16.371-23-18v-1z" fill="#231F20"></path>
                                                <path class="fill-me-main" d="m98 1023.4v6h-8v-18h12s8 0.042 8 6-8 6-8 6zm3-4c0.897-0.066 1.743-0.491 2.174-0.746 0.579-0.346 0.826-0.718 0.826-1.254 0-0.525-0.208-1.043-0.713-1.404-0.406-0.296-1.292-0.54-2.287-0.596-0.23-0.013-3 0-3 0v4s2.684 0.023 3 0" fill="#231F20"></path>
                                                <path class="fill-me-main" d="m118 1025.4-2 4h-8l9-18h9l9 18h-8l-2-4zm6-4-2-6h-1l-2 6z" fill="#231F20"></path>
                                                <path class="fill-me-main" d="m145 1023.4v6h-8v-18h12s8 0.042 8 6-8 6-8 6zm3-4c0.897-0.066 1.743-0.491 2.174-0.746 0.579-0.346 0.826-0.718 0.826-1.254 0-0.525-0.208-1.043-0.713-1.404-0.406-0.296-1.292-0.54-2.287-0.596-0.23-0.013-3 0-3 0v4s2.684 0.023 3 0" fill="#231F20"></path>
                                                <path class="fill-me-main" d="m169 1023.4v6h-8v-18h12s8 0.042 8 6-8 6-8 6zm3-4c0.897-0.066 1.743-0.491 2.174-0.746 0.579-0.346 0.826-0.718 0.826-1.254 0-0.525-0.208-1.043-0.713-1.404-0.406-0.296-1.292-0.54-2.287-0.596-0.23-0.013-3 0-3 0v4s2.684 0.023 3 0" fill="#231F20"></path>
                                                <path class="fill-me-main" d="m185 1011.4h20v4h-13v3h11v3h-11v4h13v4h-20v-17z" fill="#231F20"></path>
                                                <path class="fill-me-main" d="m210 1011.4h8v13h11v5h-19z" fill="#231F20"></path>
                                                <path class="fill-me-main" d="m233.07 1009.4q1.0205 0 1.9927 0.5263 0.97217 0.521 1.5146 1.4986 0.54248 0.9722 0.54248 2.0303 0 1.0473-0.53711 2.0141-0.53173 0.9668-1.4985 1.5039-0.96143 0.5318-2.0142 0.5318-1.0527 0-2.0195-0.5318-0.96143-0.5371-1.4985-1.5039t-0.53711-2.0141q0-1.0581 0.54248-2.0303 0.54786-0.9776 1.52-1.4986 0.97217-0.5263 1.9927-0.5263zm0 0.6714q-0.854 0-1.665 0.4404-0.80566 0.4351-1.2622 1.2515-0.45654 0.811-0.45654 1.6919 0 0.8754 0.4458 1.6811 0.45117 0.8003 1.2568 1.2515 0.80566 0.4458 1.6812 0.4458t1.6812-0.4458q0.80567-0.4512 1.2515-1.2515 0.4458-0.8057 0.4458-1.6811 0-0.8809-0.45655-1.6919-0.45117-0.8164-1.2622-1.2515-0.81104-0.4404-1.6597-0.4404zm-1.7778 5.6235v-4.3613h1.4985q0.76807 0 1.1118 0.1235 0.34375 0.1182 0.54785 0.419 0.2041 0.3007 0.2041 0.6391 0 0.478-0.34375 0.8325-0.33838 0.3545-0.90234 0.3975 0.23095 0.097 0.3706 0.231 0.26319 0.2578 0.64453 0.8647l0.53174 0.854h-0.85937l-0.38672-0.6875q-0.45654-0.811-0.73584-1.0151-0.19336-0.1504-0.56397-0.1504h-0.41357v1.853zm0.70361-2.4546h0.854q0.61231 0 0.83252-0.1826 0.22559-0.1826 0.22559-0.4834 0-0.1934-0.10742-0.3438-0.10742-0.1557-0.30078-0.2309-0.18799-0.075-0.70362-0.075h-0.80029z" fill="#231F20"></path>
                                                <path class="fill-me-green" d="m20.842 1019.4c3.647-1.158 5.07-7.515 4.158-10-0.323 2.437-6.752 4.006-4.562 9.691z" fill="#91C83E"></path>
                                                <path class="fill-me-red-all" d="m52 1019.4c1.102 0 2 0.898 2 2s-0.898 2-2 2-2-0.898-2-2 0.898-2 2-2" fill="#EC1C24"></path>
                                                <path class="stroke-me-red-all" d="m90 1035.4h139" fill="none" stroke-miterlimit="22.926" stroke-width="2px" stroke="#EC1C24"></path>
                                                <g class="fill-me-main" fill="#231F20">
                                                    <path d="m134.5 1047.1 0.94532 0.097q-0.20411 0.7036-0.93995 1.3374-0.73046 0.6338-1.7456 0.6338-0.63379 0-1.1655-0.29-0.52637-0.2954-0.80566-0.854-0.27393-0.5586-0.27393-1.273 0-0.9346 0.42969-1.81 0.43506-0.8809 1.1226-1.3052 0.6875-0.4297 1.4878-0.4297 1.0205 0 1.6274 0.6338 0.61231 0.6338 0.61231 1.7295 0 0.4189-0.0752 0.8593h-4.2002q-0.0215 0.1666-0.0215 0.3008 0 0.8003 0.36524 1.2246 0.3706 0.419 0.90234 0.419 0.49951 0 0.98291-0.3277 0.4834-0.3276 0.75195-0.9453zm-2.8252-1.4126h3.2012q5e-3 -0.1504 5e-3 -0.2148 0-0.7305-0.36523-1.1172-0.36524-0.3921-0.93994-0.3921-0.62305 0-1.1387 0.4297-0.51025 0.4297-0.76269 1.2944z" fill="#231F20"></path>
                                                    <path d="m136.35 1049 1.6436-7.874h0.97216l-1.6436 7.874z" fill="#231F20"></path>
                                                    <path d="m141.45 1051.2 1.6489-7.8901h0.89697l-0.16651 0.7949q0.49952-0.521 0.89161-0.7197 0.39746-0.2041 0.83789-0.2041 0.8164 0 1.3535 0.5962 0.53711 0.5908 0.53711 1.6972 0 0.8917-0.29541 1.6275-0.29541 0.7305-0.7251 1.1763-0.42968 0.4458-0.87011 0.6552-0.44043 0.2095-0.90235 0.2095-1.0259 0-1.5898-1.042l-0.64453 3.0991zm1.9228-4.5171q0 0.6392 0.0913 0.8863 0.13428 0.3491 0.44043 0.5639 0.30615 0.2149 0.70898 0.2149 0.83789 0 1.3535-0.94 0.51562-0.9453 0.51562-1.9282 0-0.7251-0.34912-1.1172-0.34375-0.3974-0.85937-0.3974-0.37061 0-0.6875 0.1987-0.3169 0.1934-0.59082 0.5855-0.26856 0.3867-0.4458 0.9506-0.17725 0.564-0.17725 0.9829z" fill="#231F20"></path>
                                                    <path d="m151.9 1048.3q-0.50489 0.4351-0.97217 0.6392-0.46729 0.1987-0.99902 0.1987-0.78955 0-1.273-0.4619-0.4834-0.4673-0.4834-1.1924 0-0.478 0.21484-0.8433 0.22022-0.3706 0.58008-0.5908 0.35986-0.2256 0.88086-0.3222 0.32764-0.064 1.2407-0.1021 0.91846-0.038 1.3159-0.1933 0.11279-0.3975 0.11279-0.6607 0-0.3384-0.24707-0.5317-0.33838-0.2686-0.98828-0.2686-0.6123 0-1.0044 0.2739-0.38672 0.2686-0.56397 0.7681l-0.98291-0.086q0.30078-0.8487 0.95069-1.2998 0.65527-0.4512 1.6489-0.4512 1.0581 0 1.6758 0.5049 0.47266 0.376 0.47266 0.9775 0 0.4566-0.13428 1.0581l-0.31689 1.418q-0.15039 0.6767-0.15039 1.1011 0 0.2685 0.11816 0.7734h-0.98291q-0.0806-0.2793-0.11279-0.709zm0.35986-2.1806q-0.2041 0.081-0.44043 0.1235-0.23096 0.043-0.77881 0.091-0.84863 0.075-1.1978 0.1934-0.34912 0.1127-0.52637 0.3652-0.17724 0.2524-0.17724 0.5586 0 0.4082 0.27929 0.6714 0.28467 0.2632 0.80567 0.2632 0.48339 0 0.9292-0.2525 0.4458-0.2578 0.70361-0.7143 0.25781-0.4566 0.40283-1.2998z" fill="#231F20"></path>
                                                    <path d="m153.7 1051.2 1.6489-7.8901h0.89697l-0.1665 0.7949q0.49951-0.521 0.8916-0.7197 0.39746-0.2041 0.83789-0.2041 0.81641 0 1.3535 0.5962 0.53711 0.5908 0.53711 1.6972 0 0.8917-0.29541 1.6275-0.29541 0.7305-0.7251 1.1763t-0.87012 0.6552q-0.44043 0.2095-0.90234 0.2095-1.0259 0-1.5898-1.042l-0.64453 3.0991zm1.9229-4.5171q0 0.6392 0.0913 0.8863 0.13428 0.3491 0.44043 0.5639 0.30616 0.2149 0.70899 0.2149 0.83789 0 1.3535-0.94 0.51563-0.9453 0.51563-1.9282 0-0.7251-0.34912-1.1172-0.34375-0.3974-0.85938-0.3974-0.3706 0-0.6875 0.1987-0.31689 0.1934-0.59082 0.5855-0.26855 0.3867-0.4458 0.9506-0.17724 0.564-0.17724 0.9829z" fill="#231F20"></path>
                                                    <path d="m164.49 1047.1 0.94531 0.097q-0.2041 0.7036-0.93994 1.3374-0.73047 0.6338-1.7456 0.6338-0.63379 0-1.1655-0.29-0.52637-0.2954-0.80566-0.854-0.27393-0.5586-0.27393-1.273 0-0.9346 0.42969-1.81 0.43506-0.8809 1.1226-1.3052 0.6875-0.4297 1.4878-0.4297 1.0205 0 1.6274 0.6338 0.6123 0.6338 0.6123 1.7295 0 0.4189-0.0752 0.8593h-4.2002q-0.0215 0.1666-0.0215 0.3008 0 0.8003 0.36523 1.2246 0.37061 0.419 0.90235 0.419 0.49951 0 0.98291-0.3277 0.4834-0.3276 0.75195-0.9453zm-2.8252-1.4126h3.2012q5e-3 -0.1504 5e-3 -0.2148 0-0.7305-0.36524-1.1172-0.36523-0.3921-0.93994-0.3921-0.62304 0-1.1387 0.4297-0.51025 0.4297-0.76269 1.2944z" fill="#231F20"></path>
                                                    <path d="m166.35 1049 1.6436-7.874h0.97217l-1.6436 7.874z" fill="#231F20"></path>
                                                    <path d="m172.01 1047.1 0.97217-0.059q0 0.419 0.12891 0.7144 0.1289 0.2954 0.47265 0.4834 0.34913 0.188 0.81104 0.188 0.64453 0 0.9668-0.2579 0.32226-0.2578 0.32226-0.6069 0-0.2524-0.19336-0.478-0.19873-0.2256-0.97217-0.5532-0.76806-0.3331-0.98291-0.4673-0.35986-0.2202-0.54248-0.5157-0.18261-0.3007-0.18261-0.6875 0-0.6767 0.53711-1.1601t1.5039-0.4834q1.0742 0 1.6328 0.4995 0.56397 0.4941 0.58545 1.3052l-0.95068 0.064q-0.0215-0.5156-0.36523-0.8164-0.34375-0.3008-0.97217-0.3008-0.50488 0-0.78418 0.231t-0.2793 0.4995q0 0.2686 0.2417 0.4727 0.16113 0.1396 0.83252 0.4297 1.1172 0.4834 1.4072 0.7627 0.46191 0.4458 0.46191 1.0849 0 0.4243-0.26318 0.8325-0.25782 0.4082-0.79492 0.6553-0.53174 0.2417-1.2568 0.2417-0.98828 0-1.6812-0.4888-0.69287-0.4887-0.65528-1.5898z" fill="#231F20"></path>
                                                    <path d="m181.32 1048q-1.0259 1.1601-2.1001 1.1601-0.66064 0-1.0688-0.376-0.40283-0.3813-0.40283-0.9292 0-0.3598 0.18262-1.2353l0.6875-3.2925h0.97217l-0.7627 3.647q-0.0967 0.4565-0.0967 0.709 0 0.3222 0.19336 0.5048 0.19873 0.1773 0.58008 0.1773 0.4082 0 0.79492-0.1987 0.39209-0.1988 0.67139-0.5372 0.28466-0.3383 0.46191-0.8002 0.11816-0.2955 0.27393-1.0367l0.51562-2.4653h0.97217l-1.1924 5.7041h-0.89698z" fill="#231F20"></path>
                                                    <path d="m183.64 1047.1 0.97217-0.059q0 0.419 0.1289 0.7144 0.12891 0.2954 0.47266 0.4834 0.34912 0.188 0.81104 0.188 0.64453 0 0.96679-0.2579 0.32227-0.2578 0.32227-0.6069 0-0.2524-0.19336-0.478-0.19873-0.2256-0.97217-0.5532-0.76807-0.3331-0.98291-0.4673-0.35986-0.2202-0.54248-0.5157-0.18262-0.3007-0.18262-0.6875 0-0.6767 0.53711-1.1601t1.5039-0.4834q1.0742 0 1.6328 0.4995 0.56397 0.4941 0.58545 1.3052l-0.95068 0.064q-0.0215-0.5156-0.36524-0.8164-0.34375-0.3008-0.97217-0.3008-0.50488 0-0.78417 0.231-0.2793 0.231-0.2793 0.4995 0 0.2686 0.2417 0.4727 0.16113 0.1396 0.83252 0.4297 1.1172 0.4834 1.4072 0.7627 0.46192 0.4458 0.46192 1.0849 0 0.4243-0.26319 0.8325-0.25781 0.4082-0.79492 0.6553-0.53174 0.2417-1.2568 0.2417-0.98829 0-1.6812-0.4888-0.69287-0.4887-0.65527-1.5898z" fill="#231F20"></path>
                                                    <path d="m191.32 1048.2-0.16113 0.795q-0.34912 0.091-0.67676 0.091-0.58007 0-0.92382-0.2847-0.25782-0.2148-0.25782-0.5854 0-0.188 0.13965-0.8648l0.69287-3.3139h-0.76806l0.15576-0.752h0.76806l0.29541-1.4019 1.1118-0.6713-0.43506 2.0732h0.95606l-0.16114 0.752h-0.95068l-0.66064 3.1528q-0.12354 0.6015-0.12354 0.7197 0 0.1719 0.0967 0.2632 0.10205 0.091 0.32764 0.091 0.32226 0 0.5747-0.064z" fill="#231F20"></path>
                                                    <path d="m196.29 1047.1 0.94531 0.097q-0.2041 0.7036-0.93994 1.3374-0.73047 0.6338-1.7456 0.6338-0.63379 0-1.1655-0.29-0.52636-0.2954-0.80566-0.854-0.27393-0.5586-0.27393-1.273 0-0.9346 0.42969-1.81 0.43506-0.8809 1.1226-1.3052 0.6875-0.4297 1.4878-0.4297 1.0205 0 1.6274 0.6338 0.6123 0.6338 0.6123 1.7295 0 0.4189-0.0752 0.8593h-4.2002q-0.0215 0.1666-0.0215 0.3008 0 0.8003 0.36524 1.2246 0.3706 0.419 0.90234 0.419 0.49951 0 0.98291-0.3277 0.4834-0.3276 0.75196-0.9453zm-2.8252-1.4126h3.2012q5e-3 -0.1504 5e-3 -0.2148 0-0.7305-0.36523-1.1172-0.36523-0.3921-0.93994-0.3921-0.62305 0-1.1387 0.4297-0.51026 0.4297-0.7627 1.2944z" fill="#231F20"></path>
                                                    <path d="m198.22 1049 1.1924-5.7041h0.88086l-0.20947 0.9937q0.57471-0.5855 1.0742-0.8541 0.49951-0.2685 1.0205-0.2685 0.69287 0 1.085 0.376 0.39746 0.3759 0.39746 1.0044 0 0.3169-0.13965 0.999l-0.7251 3.4536h-0.97217l0.75733-3.6147q0.11279-0.5264 0.11279-0.7789 0-0.2846-0.19873-0.4619-0.19336-0.1772-0.56396-0.1772-0.74659 0-1.332 0.5371-0.58007 0.5371-0.854 1.8423l-0.55322 2.6533z" fill="#231F20"></path>
                                                    <path d="m206.61 1048.2-0.16113 0.795q-0.34912 0.091-0.67676 0.091-0.58008 0-0.92383-0.2847-0.25781-0.2148-0.25781-0.5854 0-0.188 0.13965-0.8648l0.69287-3.3139h-0.76807l0.15576-0.752h0.76807l0.29541-1.4019 1.1118-0.6713-0.43506 2.0732h0.95605l-0.16113 0.752h-0.95068l-0.66065 3.1528q-0.12353 0.6015-0.12353 0.7197 0 0.1719 0.0967 0.2632 0.10205 0.091 0.32763 0.091 0.32227 0 0.57471-0.064z" fill="#231F20"></path>
                                                    <path d="m211.24 1048.3q-0.50488 0.4351-0.97217 0.6392-0.46728 0.1987-0.99902 0.1987-0.78955 0-1.273-0.4619-0.4834-0.4673-0.4834-1.1924 0-0.478 0.21485-0.8433 0.22021-0.3706 0.58007-0.5908 0.35987-0.2256 0.88086-0.3222 0.32764-0.064 1.2407-0.1021 0.91845-0.038 1.3159-0.1933 0.1128-0.3975 0.1128-0.6607 0-0.3384-0.24707-0.5317-0.33838-0.2686-0.98828-0.2686-0.61231 0-1.0044 0.2739-0.38672 0.2686-0.56396 0.7681l-0.98291-0.086q0.30078-0.8487 0.95068-1.2998 0.65527-0.4512 1.6489-0.4512 1.0581 0 1.6758 0.5049 0.47265 0.376 0.47265 0.9775 0 0.4566-0.13427 1.0581l-0.3169 1.418q-0.15039 0.6767-0.15039 1.1011 0 0.2685 0.11816 0.7734h-0.98291q-0.0806-0.2793-0.11279-0.709zm0.35986-2.1806q-0.2041 0.081-0.44043 0.1235-0.23095 0.043-0.7788 0.091-0.84864 0.075-1.1978 0.1934-0.34912 0.1127-0.52636 0.3652-0.17725 0.2524-0.17725 0.5586 0 0.4082 0.2793 0.6714 0.28466 0.2632 0.80566 0.2632 0.4834 0 0.9292-0.2525 0.4458-0.2578 0.70361-0.7143 0.25781-0.4566 0.40283-1.2998z" fill="#231F20"></path>
                                                    <path d="m213.52 1049 1.6436-7.874h0.97217l-0.58545 2.8144q0.46191-0.4243 0.83789-0.5962 0.37598-0.1772 0.78418-0.1772 0.80029 0 1.332 0.5962 0.53711 0.5962 0.53711 1.7348 0 0.7574-0.21484 1.3858-0.21485 0.6284-0.53174 1.0581-0.3169 0.4243-0.65528 0.6821-0.33838 0.2525-0.69287 0.376-0.35449 0.1289-0.68213 0.1289-0.56396 0-0.99365-0.2954-0.42969-0.3008-0.67139-0.9131l-0.22558 1.0796zm1.4395-2.3418-5e-3 0.1826q0 0.7305 0.34912 1.1118 0.34912 0.3814 0.87012 0.3814 0.51025 0 0.93457-0.3545 0.42968-0.3599 0.70361-1.1172 0.27392-0.7573 0.27392-1.3965 0-0.7197-0.34912-1.1172-0.34375-0.3974-0.854-0.3974-0.52637 0-0.9668 0.4082-0.44043 0.4028-0.73584 1.2461-0.22021 0.6284-0.22021 1.0527z" fill="#231F20"></path>
                                                    <path d="m219.56 1049 1.6436-7.874h0.97217l-1.6436 7.874z" fill="#231F20"></path>
                                                    <path d="m226.28 1047.1 0.94532 0.097q-0.20411 0.7036-0.93995 1.3374-0.73046 0.6338-1.7456 0.6338-0.63379 0-1.1655-0.29-0.52637-0.2954-0.80566-0.854-0.27393-0.5586-0.27393-1.273 0-0.9346 0.42969-1.81 0.43506-0.8809 1.1226-1.3052 0.6875-0.4297 1.4878-0.4297 1.0205 0 1.6274 0.6338 0.61231 0.6338 0.61231 1.7295 0 0.4189-0.0752 0.8593h-4.2002q-0.0215 0.1666-0.0215 0.3008 0 0.8003 0.36524 1.2246 0.3706 0.419 0.90234 0.419 0.49951 0 0.98291-0.3277 0.4834-0.3276 0.75195-0.9453zm-2.8252-1.4126h3.2012q5e-3 -0.1504 5e-3 -0.2148 0-0.7305-0.36523-1.1172-0.36524-0.3921-0.93994-0.3921-0.62305 0-1.1387 0.4297-0.51025 0.4297-0.76269 1.2944z" fill="#231F20"></path>
                                                    <path d="m230.44 1039.1q0.64942 0 1.2681 0.335 0.61865 0.3315 0.96387 0.9536 0.34521 0.6186 0.34521 1.292 0 0.6665-0.3418 1.2817-0.33837 0.6152-0.95361 0.957-0.61181 0.3384-1.2817 0.3384-0.66992 0-1.2852-0.3384-0.61182-0.3418-0.95362-0.957-0.34179-0.6152-0.34179-1.2817 0-0.6734 0.34521-1.292 0.34863-0.6221 0.96729-0.9536 0.61865-0.335 1.2681-0.335zm0 0.4273q-0.54345 0-1.0596 0.2802-0.51269 0.2769-0.80322 0.7964-0.29053 0.5161-0.29053 1.0767 0 0.5571 0.28369 1.0698 0.28711 0.5093 0.79981 0.7964 0.51269 0.2837 1.0698 0.2837t1.0698-0.2837q0.51269-0.2871 0.79638-0.7964 0.2837-0.5127 0.2837-1.0698 0-0.5606-0.29053-1.0767-0.28711-0.5195-0.80322-0.7964-0.51612-0.2802-1.0562-0.2802zm-1.1313 3.5786v-2.7754h0.95361q0.48877 0 0.70752 0.079 0.21875 0.075 0.34863 0.2666 0.12988 0.1914 0.12988 0.4067 0 0.3042-0.21875 0.5298-0.21533 0.2256-0.57421 0.2529 0.14697 0.062 0.23584 0.147 0.16748 0.1641 0.41015 0.5503l0.33838 0.5435h-0.54687l-0.2461-0.4375q-0.29053-0.5161-0.46826-0.646-0.12305-0.096-0.35889-0.096h-0.26318v1.1792zm0.44775-1.562h0.54346q0.38965 0 0.52978-0.1163 0.14356-0.1162 0.14356-0.3076 0-0.123-0.0684-0.2187-0.0684-0.099-0.19141-0.147-0.11963-0.048-0.44775-0.048h-0.50928z" baseline-shift="super" fill="#231F20"></path>
                                                </g>
                                            </g>
                                        </svg>