    <svg xmlns="http://www.w3.org/2000/svg" width="300" height="61" viewBox="0 0 300 61" fill="none">
      <g >
        <path d="M72.3273 28.5532V36.9395H79.815V43.1293H72.3273V57.8052H65.8379V22.7627H85.8052V28.5532H72.3273ZM99.6824 44.8265C99.6824 50.1178 97.2863 52.7136 94.0916 52.7136C90.3976 52.7136 88.5008 50.018 88.5008 44.7267C88.5008 39.4353 91.2961 37.1391 94.0916 37.1391C97.9852 37.1391 99.6824 39.8347 99.6824 44.8265ZM106.272 44.4272C106.272 35.5417 101.679 31.5483 94.6906 31.5483C87.103 31.5483 82.0114 37.3388 82.0114 45.4255C82.0114 54.6105 86.6038 58.4043 93.5924 58.4043C100.98 58.4043 106.272 52.5139 106.272 44.4272ZM122.245 38.0377C117.653 37.0393 115.357 40.2341 115.357 47.4223V57.9051H108.967V32.0475H114.957C114.957 33.3453 114.858 35.4419 114.558 37.2389H114.658C115.856 33.9443 118.252 31.1489 122.545 31.4485L122.245 38.0377ZM155.591 57.8052V41.4321C155.591 38.6367 154.992 36.9395 152.596 36.9395C149.8 36.9395 146.905 40.3339 146.905 45.4255V57.9051H140.615V41.5319C140.615 38.9362 140.116 37.0393 137.62 37.0393C134.625 37.0393 131.93 40.6334 131.93 45.5254V57.9051H125.54V32.0475H131.63C131.63 33.2455 131.53 35.1424 131.231 36.64H131.331C132.828 33.4452 135.823 31.4485 139.517 31.4485C143.91 31.4485 145.807 34.144 146.306 36.64C147.404 34.0442 150.2 31.4485 154.393 31.4485C159.185 31.4485 161.781 34.2439 161.781 40.0344V57.8052H155.591ZM181.448 57.8052C181.448 56.6072 181.448 54.6105 181.748 53.2128L181.648 53.1129C180.15 56.2079 177.255 58.3044 173.262 58.3044C167.671 58.3044 165.874 54.6105 165.874 50.018V31.8478H172.263V48.3208C172.263 51.0164 172.962 52.6138 175.358 52.6138C178.653 52.6138 181.049 48.82 181.049 44.2275V31.9476H187.439V57.8052H181.448ZM192.331 22.8625H198.72V57.9051H192.331V22.8625ZM215.892 47.0229C215.892 50.1179 213.696 53.3126 210.601 53.3126C208.704 53.3126 207.605 52.2144 207.605 50.5172C207.605 48.4206 209.103 46.4239 215.892 46.4239V47.0229ZM222.481 57.8052C222.381 55.6088 222.381 53.2128 222.381 51.1162V40.3339C222.381 34.743 220.085 31.3486 212.098 31.3486C208.903 31.3486 205.709 32.0475 203.213 32.946L203.812 38.5368C205.908 37.239 208.903 36.5401 211.1 36.5401C214.694 36.5401 215.992 37.9378 215.992 40.6334V42.0311C207.605 42.0311 201.615 45.3257 201.615 51.5156C201.615 55.6089 204.211 58.3044 208.704 58.3044C212.398 58.3044 215.393 56.3077 216.591 53.4124C216.391 54.8102 216.291 56.3077 216.291 57.8052H222.481ZM104.275 26.1571L95.9885 30.1506L94.5907 28.3535L101.779 22.7627L104.275 26.1571Z" fill="#929394" />
        <path d="M233.763 54.91C233.763 56.8069 232.066 58.5041 230.069 58.5041C228.072 58.5041 226.375 56.9067 226.375 54.91C226.375 52.9133 228.072 51.3159 230.069 51.3159C232.066 51.4157 233.763 53.0131 233.763 54.91ZM268.306 58.0049V42.0311C268.306 38.9362 267.508 36.9394 264.612 36.9394C261.218 36.9394 257.923 40.5336 257.923 46.0246V58.0049H252.432V41.9313C252.432 39.036 251.833 36.8396 248.738 36.8396C245.144 36.8396 242.149 40.6334 242.149 45.9247V57.9051H236.558V32.946H241.85C241.85 34.2439 241.75 36.3404 241.45 37.838H241.55C243.048 34.4435 246.242 32.347 250.336 32.347C255.427 32.347 257.125 35.5417 257.524 37.7381C258.622 35.3421 261.517 32.347 266.11 32.347C271.002 32.347 273.797 34.9427 273.797 40.6334V57.9051L268.306 58.0049ZM292.666 58.0049L286.776 48.9198L280.886 58.0049H274.197L283.481 45.3257L274.696 32.8462H281.385L287.175 41.8314L293.066 32.8462H299.256L290.769 45.2259L299.755 57.9051H292.666V58.0049Z" fill="#0163E9" />
        <path d="M73.6249 7.28804C73.6249 9.28477 72.0275 10.7823 69.1323 10.7823C68.3336 10.7823 67.7346 10.7823 67.435 10.6825V4.0933C68.0341 4.0933 68.5332 3.99345 69.2321 3.99345C72.0275 3.99345 73.6249 4.79213 73.6249 7.28804ZM76.5202 20.2668L71.129 13.6776C70.7297 13.0786 70.0308 12.3797 69.5316 11.8805C72.9261 11.8805 75.422 10.1833 75.422 6.98854C75.422 3.79378 72.9261 2.69558 69.8311 2.69558C68.0341 2.69558 66.9359 2.69559 65.9375 2.79542V20.3666H67.6347V11.9804H67.7345L74.3238 20.2668H76.5202Z" fill="#A6A7AA" />
        <path d="M83.9085 14.3764C83.9085 16.7725 82.3111 19.1686 79.9151 19.1686C78.6172 19.1686 77.7187 18.3699 77.7187 17.072C77.7187 15.7741 78.8169 14.1768 84.0084 14.1768V14.3764H83.9085ZM85.6057 20.2668V11.2815C85.6057 8.88542 84.6074 7.18823 81.2129 7.18823C79.5157 7.18823 78.0182 7.58758 76.8202 8.18659L77.0198 9.68414C78.118 8.98528 79.7154 8.58593 80.9134 8.58593C83.2097 8.58593 83.9085 9.78396 83.9085 11.8805V12.9787C78.717 12.9787 76.0215 14.8756 76.0215 17.4714C76.0215 19.4681 77.519 20.5663 79.5158 20.5663C81.812 20.5663 83.4093 19.1686 84.1082 17.4714C84.0084 18.1702 84.0084 19.2684 84.0084 20.3666L85.6057 20.2668ZM96.2882 13.5777C96.2882 15.874 94.9904 19.1686 92.2948 19.1686C89.9986 19.1686 89.0002 17.2717 89.0002 14.2766C89.0002 10.1833 90.7972 8.58593 93.6925 8.58593C94.4912 8.58593 95.4896 8.68576 96.2882 8.98527V13.5777ZM97.8856 20.2668V2.49591H96.2882V7.38788C95.3897 7.28805 94.591 7.28804 93.7923 7.28804C89.8987 7.28804 87.303 9.78396 87.303 14.4763C87.303 18.2701 88.9004 20.5663 91.9953 20.5663C94.0919 20.5663 95.7891 19.2684 96.4879 17.3715H96.5877C96.4879 18.1702 96.3881 19.5679 96.3881 20.3666L97.8856 20.2668ZM100.581 4.89198C99.9822 4.89198 99.483 4.3928 99.483 3.69394C99.483 2.99509 99.9822 2.49591 100.581 2.49591C101.18 2.49591 101.679 2.99509 101.679 3.69394C101.679 4.3928 101.18 4.89198 100.581 4.89198ZM99.6826 20.2668V7.38788H101.28V20.2668H99.6826ZM112.861 13.7774C112.861 17.5712 110.964 19.1686 108.768 19.1686C106.172 19.1686 104.674 17.2717 104.674 13.7774C104.674 10.1833 106.671 8.48609 108.768 8.48609C111.463 8.48609 112.861 10.4828 112.861 13.7774ZM114.458 13.6776C114.458 8.88545 111.863 7.18823 108.868 7.18823C105.074 7.18823 102.877 10.2831 102.877 13.8772C102.877 18.3699 105.074 20.4664 108.468 20.4664C112.162 20.4664 114.458 17.3715 114.458 13.6776Z" fill="#A6A7AA" />
        <path d="M18.9689 55.3093C14.3764 52.0147 11.3813 46.7234 11.3813 40.5336C11.3813 25.3584 26.0573 23.2618 26.9558 21.6645H27.6547V35.2422C22.0638 36.0409 17.8707 40.833 17.8707 46.7234C17.8707 51.6154 21.2651 56.9067 26.9558 57.9051C27.5548 58.0049 27.6547 58.2046 27.6547 58.6039V60.3011C27.6547 60.8003 27.2553 61 26.5564 60.9002C11.581 59.5025 0 46.8232 0 31.3486C0 6.18985 24.7594 3.79378 27.0556 0H27.7545V10.5827C27.7545 13.6776 26.6563 14.1767 24.0605 15.2749C16.6726 18.1702 7.88703 23.8609 7.88703 36.3404C7.68736 44.527 12.18 51.6154 18.9689 55.3093ZM39.5352 55.4092C44.1276 52.1146 47.1228 46.7234 47.1228 40.6334C47.1228 25.4582 32.4468 23.3617 31.5483 21.7643H30.8494V35.3421C36.4402 36.1407 40.6334 40.9329 40.6334 46.8232C40.6334 51.7152 37.2389 57.0066 31.5483 58.0049C30.9492 58.1048 30.8494 58.3044 30.8494 58.7038V60.401C30.8494 60.9002 31.2488 61.0998 31.9476 61C46.9231 59.6023 58.5041 46.9231 58.5041 31.4484C58.5041 6.28969 33.7447 3.89361 31.4484 0.0998272H30.7496V10.6825C30.7496 13.7774 31.8478 14.2766 34.4435 15.3748C41.8314 18.3699 50.617 23.9607 50.617 36.5401C50.7169 44.527 46.2242 51.6154 39.5352 55.4092Z" fill="#0163E9" />
      </g>
      <defs>
        <clipPath id="clip0_393_4197">
          <rect width="300" height="61" fill="white" />
        </clipPath>
      </defs>
    </svg>